<svg width="18" height="18" viewBox="0 0 18 18" fill="none" xmlns="http://www.w3.org/2000/svg">
<path fill-rule="evenodd" clip-rule="evenodd" d="M10.1706 0.941636C10.5452 1.05973 10.8 1.40718 10.8 1.8V6.3L14.4 6.3C14.7356 6.3 15.0433 6.48671 15.1983 6.78437C15.3533 7.08203 15.3298 7.44119 15.1373 7.71612L8.83731 16.7161C8.61204 17.0379 8.20408 17.1765 7.82942 17.0584C7.45477 16.9403 7.2 16.5928 7.2 16.2L7.2 11.7H3.6C3.26441 11.7 2.9567 11.5133 2.80172 11.2156C2.64674 10.918 2.67024 10.5588 2.86269 10.2839L9.16269 1.28388C9.38796 0.962071 9.79592 0.823538 10.1706 0.941636Z" fill="#2B2B2B"/>
</svg>
