<svg width="18" height="18" viewBox="0 0 18 18" fill="none" xmlns="http://www.w3.org/2000/svg">
<path d="M9.6364 2.0636C9.28493 1.71213 8.71508 1.71213 8.36361 2.0636L2.06361 8.3636C1.71214 8.71508 1.71214 9.28492 2.06361 9.6364C2.41508 9.98787 2.98493 9.98787 3.3364 9.6364L3.6 9.37279V15.3C3.6 15.7971 4.00295 16.2 4.5 16.2H6.3C6.79706 16.2 7.2 15.7971 7.2 15.3V13.5C7.2 13.0029 7.60295 12.6 8.1 12.6H9.9C10.3971 12.6 10.8 13.0029 10.8 13.5V15.3C10.8 15.7971 11.2029 16.2 11.7 16.2H13.5C13.9971 16.2 14.4 15.7971 14.4 15.3V9.37279L14.6636 9.6364C15.0151 9.98787 15.5849 9.98787 15.9364 9.6364C16.2879 9.28492 16.2879 8.71508 15.9364 8.3636L9.6364 2.0636Z" fill="#2B2B2B"/>
</svg>
