<svg width="18" height="18" viewBox="0 0 18 18" fill="none" xmlns="http://www.w3.org/2000/svg">
<path fill-rule="evenodd" clip-rule="evenodd" d="M10.3403 2.85385C9.99918 1.44872 8.00083 1.44872 7.6597 2.85385C7.43935 3.76154 6.39941 4.1923 5.60175 3.70628C4.36697 2.95391 2.95391 4.36696 3.70628 5.60175C4.1923 6.3994 3.76155 7.43934 2.85385 7.6597C1.44872 8.00082 1.44872 9.99918 2.85385 10.3403C3.76155 10.5607 4.1923 11.6006 3.70628 12.3983C2.95392 13.633 4.36697 15.0461 5.60175 14.2937C6.39941 13.8077 7.43935 14.2385 7.6597 15.1462C8.00083 16.5513 9.99918 16.5513 10.3403 15.1462C10.5607 14.2385 11.6006 13.8077 12.3983 14.2937C13.633 15.0461 15.0461 13.633 14.2937 12.3983C13.8077 11.6006 14.2385 10.5607 15.1462 10.3403C16.5513 9.99918 16.5513 8.00082 15.1462 7.6597C14.2385 7.43934 13.8077 6.3994 14.2937 5.60175C15.0461 4.36696 13.633 2.95391 12.3983 3.70628C11.6006 4.1923 10.5607 3.76154 10.3403 2.85385ZM9 11.7C10.4912 11.7 11.7 10.4912 11.7 9C11.7 7.50883 10.4912 6.3 9 6.3C7.50883 6.3 6.3 7.50883 6.3 9C6.3 10.4912 7.50883 11.7 9 11.7Z" fill="#2B2B2B"/>
</svg>
