<svg width="18" height="18" viewBox="0 0 18 18" fill="none" xmlns="http://www.w3.org/2000/svg">
<path d="M8.1 4.32381C7.14853 3.86015 6.07965 3.6 4.95 3.6C3.82036 3.6 2.75148 3.86015 1.8 4.32381V13.3238C2.75148 12.8602 3.82036 12.6 4.95 12.6C6.45175 12.6 7.84611 13.0598 9 13.8462C10.1539 13.0598 11.5483 12.6 13.05 12.6C14.1796 12.6 15.2485 12.8602 16.2 13.3238V4.32381C15.2485 3.86015 14.1796 3.6 13.05 3.6C11.9204 3.6 10.8515 3.86015 9.9 4.32381V10.8C9.9 11.2971 9.49706 11.7 9 11.7C8.50295 11.7 8.1 11.2971 8.1 10.8V4.32381Z" fill="#2B2B2B"/>
</svg>
