<svg width="22" height="17" viewBox="0 0 22 17" fill="none" xmlns="http://www.w3.org/2000/svg">
<path d="M9.77777 3.64286C9.77777 5.65475 8.13615 7.28571 6.1111 7.28571C4.08606 7.28571 2.44444 5.65475 2.44444 3.64286C2.44444 1.63096 4.08606 0 6.1111 0C8.13615 0 9.77777 1.63096 9.77777 3.64286Z" fill="#1D1D1D"/>
<path d="M19.5555 3.64286C19.5555 5.65475 17.9139 7.28571 15.8889 7.28571C13.8638 7.28571 12.2222 5.65475 12.2222 3.64286C12.2222 1.63096 13.8638 0 15.8889 0C17.9139 0 19.5555 1.63096 19.5555 3.64286Z" fill="#1D1D1D"/>
<path d="M14.58 17C14.6371 16.6034 14.6667 16.198 14.6667 15.7857C14.6667 13.8001 13.9814 11.9736 12.833 10.5267C13.732 10.01 14.7757 9.71429 15.8889 9.71429C19.264 9.71429 22 12.4326 22 15.7857V17H14.58Z" fill="#1D1D1D"/>
<path d="M6.1111 9.71429C9.48617 9.71429 12.2222 12.4326 12.2222 15.7857V17H0V15.7857C0 12.4326 2.73603 9.71429 6.1111 9.71429Z" fill="#1D1D1D"/>
</svg>
