<svg width="238" height="238" viewBox="0 0 238 238" fill="none" xmlns="http://www.w3.org/2000/svg">
<path d="M91.2616 85.6772C91.2616 86.7555 91.3241 87.8192 91.4443 88.8651L75.5248 98.0557V108.677H69.8633C67.7069 108.677 57.9308 108.679 57.9308 108.679L57.4115 114.116C56.3033 125.712 55.1578 137.703 53.9954 149.618L53.2285 157.475L53.2706 157.504L53.3691 157.571L53.3872 157.583L53.3956 157.589L65.8341 166.102H65.8353L72.1219 165.009C73.7722 164.722 75.4322 164.449 77.0562 164.197L80.8101 163.614C80.8101 163.614 83.3331 163.246 84.5916 163.105L88.5523 162.662C90.2411 162.473 91.954 162.299 93.6428 162.141L94.4073 162.07L119.001 180.063L143.545 162.108L147.171 162.506C153.251 163.172 159.372 164.062 165.631 164.993L172.027 165.942L184.773 157.389L181.942 140.03L181.817 140.013L181.801 139.917L180.86 139.793L180.312 134.012C180.206 132.891 179.819 128.785 179.632 126.799H179.661L179.656 126.75L179.7 126.751L179.695 126.701L179.739 126.702L179.734 126.652L179.778 126.653L179.774 126.604H179.818L179.813 126.554L179.858 126.556L179.853 126.505L179.896 126.506L179.891 126.456L179.936 126.457L179.931 126.408H179.976L179.971 126.358L180.014 126.36L180.009 126.309L180.054 126.31L180.049 126.26L180.093 126.261L180.089 126.212H180.132L180.128 126.162L180.171 126.164L180.167 126.113L180.211 126.114L180.206 126.064L180.251 126.065L180.246 126.016L180.289 126.017L180.284 125.966L180.329 125.968L180.324 125.917L180.369 125.918L180.364 125.868L180.407 125.869L180.402 125.82L180.447 125.821L180.442 125.771L180.486 125.772L180.483 125.731L180.744 125.737L180.102 119.001C179.95 117.411 179.798 115.819 179.646 114.228L179.124 108.786H178.996L178.985 108.673L173.518 108.679C171.47 108.68 169.423 108.683 167.376 108.686C165.742 108.687 164.109 108.69 162.477 108.691V98.0557L146.557 88.8651C146.676 87.8192 146.74 86.7555 146.74 85.6772C146.74 70.3575 134.32 57.9382 119.001 57.9382C103.681 57.9382 91.2616 70.3575 91.2616 85.6772Z" fill="url(#paint0_linear_694_4822)"/>
<mask id="mask0_694_4822" style="mask-type:luminance" maskUnits="userSpaceOnUse" x="0" y="0" width="238" height="238">
<path d="M0 0H238V238H0V0Z" fill="white"/>
</mask>
<g mask="url(#mask0_694_4822)">
<path d="M184.773 157.389L172.027 165.942L165.631 164.992C159.372 164.062 153.251 163.171 147.171 162.506L143.545 162.108L119.001 180.063L94.4073 162.07L93.6428 162.141C91.954 162.299 90.2411 162.473 88.5523 162.662L84.5916 163.105C83.3331 163.246 80.8101 163.614 80.8101 163.614L77.0562 164.197C75.4322 164.449 73.7722 164.722 72.1219 165.009L65.8353 166.102H65.8341L53.3956 157.589L53.3872 157.583L53.3692 157.571L53.2706 157.504L53.2285 157.475L53.9954 149.617C55.1578 137.703 56.3033 125.712 57.4115 114.116L57.9308 108.679C57.9308 108.679 67.7068 108.677 69.8633 108.677H75.5248V98.0556L91.4443 88.8649C91.3241 87.8192 91.2616 86.7554 91.2616 85.6772C91.2616 70.3574 103.681 57.9382 119.001 57.9382C134.32 57.9382 146.74 70.3574 146.74 85.6772C146.74 86.7554 146.676 87.8192 146.557 88.8649L162.476 98.0556V108.691C164.109 108.69 165.742 108.687 167.376 108.686C169.423 108.683 171.47 108.68 173.518 108.679L178.985 108.673L178.996 108.786H179.124L179.646 114.228C179.798 115.819 179.95 117.411 180.102 119.001L180.744 125.737L180.483 125.731L180.486 125.772L180.442 125.771L180.447 125.821L180.402 125.82L180.407 125.869L180.364 125.868L180.369 125.918L180.324 125.917L180.329 125.968L180.284 125.967L180.289 126.017L180.246 126.016L180.251 126.065L180.206 126.064L180.211 126.114L180.167 126.113L180.171 126.164L180.128 126.162L180.132 126.212H180.088L180.093 126.261L180.049 126.26L180.054 126.31L180.009 126.309L180.014 126.36L179.971 126.358L179.975 126.408H179.931L179.936 126.457L179.891 126.456L179.896 126.506L179.853 126.505L179.858 126.555L179.813 126.554L179.818 126.604H179.774L179.778 126.653L179.734 126.652L179.739 126.702L179.695 126.701L179.7 126.751L179.656 126.75L179.661 126.8H179.632C179.819 128.785 180.206 132.891 180.312 134.012L180.86 139.793L181.801 139.917L181.817 140.013L181.942 140.03L184.773 157.389Z" stroke="white" stroke-width="1.19" stroke-miterlimit="10"/>
<path d="M53.3875 157.584L53.3961 157.59L65.8337 166.102L65.8353 166.102L65.8358 166.102L72.1214 165.009C73.7722 164.722 75.4325 164.449 77.0562 164.197L80.8099 163.614C80.8099 163.614 83.3335 163.246 84.5917 163.105L88.5526 162.662C90.2415 162.474 91.9542 162.298 93.6431 162.142L94.4068 162.071L119.001 180.063L143.544 162.108L147.171 162.505C153.251 163.172 159.372 164.062 165.63 164.992L172.027 165.943L172.022 165.907L172.032 165.909L172.027 165.943L184.773 157.389L181.942 140.03L181.817 140.013L181.802 139.918L180.86 139.794L180.313 134.012C180.207 132.891 179.819 128.785 179.631 126.799L179.661 126.8L179.656 126.75L179.7 126.751L179.695 126.701L179.739 126.702L179.734 126.652L179.779 126.653L179.774 126.603L179.818 126.604L179.813 126.554L179.857 126.555L179.852 126.505L179.896 126.506L179.892 126.456L179.936 126.457L179.931 126.407L179.975 126.408L179.97 126.358L180.014 126.359L180.01 126.309L180.054 126.31L180.049 126.26L180.093 126.261L180.088 126.211L180.132 126.212L180.128 126.162L180.172 126.163L180.167 126.113L180.211 126.114L180.206 126.064L180.25 126.065L180.246 126.015L180.29 126.016L180.285 125.966L180.329 125.967L180.324 125.918L180.368 125.919L180.364 125.869L180.408 125.87L180.403 125.82L180.447 125.821L180.442 125.771L180.486 125.772L180.482 125.731L180.744 125.737L180.102 119.002C179.95 117.41 179.798 115.819 179.646 114.228L179.124 108.786L178.995 108.786L178.985 108.674L173.518 108.679C171.47 108.681 169.423 108.683 167.376 108.686C165.743 108.688 164.109 108.69 162.476 108.692V98.0561L146.557 88.8651C146.677 87.8189 146.74 86.7558 146.74 85.6775C146.74 70.3573 134.321 57.9379 119.001 57.9379C103.68 57.9379 91.261 70.3573 91.261 85.6775C91.261 86.7558 91.3247 87.8189 91.4445 88.8652L75.5253 98.0561V108.677L69.8627 108.677C67.7064 108.677 57.9305 108.679 57.9305 108.679L57.4109 114.116C56.3029 125.712 55.1572 137.703 53.995 149.617L53.2285 157.475L53.2703 157.504H53.2705L53.3695 157.571L53.3875 157.584Z" fill="black"/>
<path d="M84.2962 106.879C84.3002 106.864 84.3022 106.855 84.3049 106.846C84.5447 106.097 84.7847 105.348 85.0245 104.598C85.2067 104.029 85.3886 103.459 85.5715 102.89C85.5798 102.865 85.5756 102.851 85.5541 102.836C85.1183 102.519 84.6832 102.201 84.248 101.884C83.8383 101.585 83.4287 101.286 83.019 100.987C82.7095 100.762 82.3998 100.536 82.0903 100.31C82.0819 100.304 82.0735 100.297 82.0586 100.286H82.1008H86.3523C86.4041 100.286 86.404 100.286 86.4195 100.238C86.6007 99.672 86.7819 99.1064 86.963 98.5407C87.2036 97.7886 87.4441 97.0365 87.6846 96.2842C87.6881 96.2733 87.6921 96.2626 87.6988 96.2432C87.7053 96.2619 87.7097 96.2735 87.7134 96.2853C87.9001 96.8683 88.0866 97.4514 88.2732 98.0345C88.51 98.7747 88.7469 99.5149 88.9831 100.255C88.9911 100.281 89.0048 100.287 89.0292 100.287C89.329 100.286 89.6288 100.286 89.9285 100.286H93.2952H93.3396C93.2678 100.339 93.2023 100.387 93.1368 100.434C92.2648 101.071 91.3928 101.707 90.5208 102.343C90.2981 102.505 90.0752 102.667 89.8527 102.83C89.8099 102.861 89.8143 102.85 89.8299 102.899C90.083 103.691 90.3367 104.482 90.5899 105.274C90.7575 105.797 90.9249 106.321 91.0924 106.845C91.0953 106.853 91.0975 106.863 91.1025 106.88C91.0885 106.871 91.0808 106.868 91.0739 106.862C90.5113 106.452 89.9489 106.042 89.3864 105.631C88.8316 105.227 88.2769 104.822 87.7224 104.417C87.7044 104.404 87.6919 104.405 87.6744 104.418C87.0829 104.85 86.491 105.282 85.899 105.714C85.3739 106.097 84.8485 106.48 84.3232 106.863C84.3165 106.868 84.309 106.871 84.2962 106.879Z" fill="#FDC70C"/>
<path d="M146.898 106.879C146.902 106.864 146.904 106.855 146.906 106.846C147.146 106.097 147.386 105.348 147.626 104.598C147.808 104.029 147.99 103.459 148.173 102.89C148.181 102.865 148.177 102.851 148.156 102.836C147.72 102.519 147.285 102.201 146.85 101.884C146.44 101.585 146.03 101.286 145.621 100.987C145.311 100.762 145.001 100.536 144.692 100.31C144.683 100.304 144.675 100.297 144.66 100.286H144.702H148.954C149.006 100.286 149.006 100.286 149.021 100.238C149.202 99.672 149.383 99.1064 149.565 98.5407C149.805 97.7886 150.046 97.0365 150.286 96.2842C150.29 96.2733 150.294 96.2626 150.3 96.2432C150.307 96.2619 150.311 96.2735 150.315 96.2853C150.502 96.8683 150.688 97.4514 150.875 98.0345C151.112 98.7747 151.348 99.5149 151.585 100.255C151.593 100.281 151.606 100.287 151.631 100.287C151.931 100.286 152.23 100.286 152.53 100.286H155.897H155.941C155.869 100.339 155.804 100.387 155.738 100.434C154.866 101.071 153.994 101.707 153.122 102.343C152.9 102.505 152.677 102.667 152.454 102.83C152.412 102.861 152.416 102.85 152.431 102.899C152.685 103.691 152.938 104.482 153.191 105.274C153.359 105.797 153.526 106.321 153.694 106.845C153.697 106.853 153.699 106.863 153.704 106.88C153.69 106.871 153.682 106.868 153.675 106.862C153.113 106.452 152.55 106.042 151.988 105.631C151.433 105.227 150.878 104.822 150.324 104.417C150.306 104.404 150.293 104.405 150.276 104.418C149.684 104.85 149.093 105.282 148.501 105.714C147.975 106.097 147.45 106.48 146.925 106.863C146.918 106.868 146.911 106.871 146.898 106.879Z" fill="#FDC70C"/>
<path d="M79.3775 129.952C80.1822 129.21 80.9842 128.476 81.7834 127.748C81.9473 125.448 82.1102 123.149 82.2733 120.849C81.6302 120.203 80.9899 119.551 80.352 118.896C76.5798 118.955 72.8084 119.022 69.0381 119.099C68.6903 122.965 68.3443 126.83 67.9976 130.696C71.7876 130.416 75.5811 130.169 79.3775 129.952ZM63.5325 114.8C70.3554 114.799 77.178 114.8 84.0008 114.8C85.4312 116.258 86.8744 117.692 88.3304 119.107C88.1319 122.364 87.932 125.622 87.7327 128.88C86.2165 130.254 84.6899 131.649 83.1533 133.07C84.4698 137.679 85.822 142.219 87.2217 146.702C85.0831 146.9 82.9458 147.119 80.8102 147.358C79.5847 143.064 78.4006 138.709 77.2558 134.279C74.0353 134.523 70.8175 134.794 67.6031 135.094C67.177 139.827 66.7547 144.558 66.3304 149.29C64.2563 149.612 62.1846 149.953 60.1152 150.313C61.2703 138.473 62.4012 126.638 63.5325 114.8Z" fill="#ECCA00"/>
<path d="M93.8281 142.347C95.9187 142.211 98.0104 142.091 100.103 141.989C100.404 134.181 100.698 126.375 100.983 118.569C98.9873 118.583 96.9916 118.599 94.996 118.618C95.0585 117.345 95.1212 116.072 95.1834 114.799C101.141 114.802 107.098 114.799 113.055 114.798C113.04 116.036 113.024 117.273 113.009 118.51C110.996 118.515 108.983 118.523 106.97 118.532C106.782 126.266 106.579 133.999 106.383 141.732C108.494 141.664 110.606 141.612 112.718 141.578C112.702 142.816 112.686 144.053 112.671 145.29C106.323 145.404 99.9767 145.695 93.6406 146.166C93.703 144.893 93.7655 143.62 93.8281 142.347Z" fill="#ECCA00"/>
<path d="M119.525 141.309C119.523 139.75 119.521 138.192 119.52 136.633C121.575 136.635 123.631 136.651 125.686 136.681C125.7 137.698 125.714 138.715 125.728 139.732C126.367 140.273 127.007 140.816 127.65 141.362C130.94 141.436 134.229 141.552 137.516 141.711C138.163 141.175 138.808 140.64 139.45 140.103C139.361 137.941 139.269 135.779 139.182 133.617C138.663 133.163 138.145 132.71 137.628 132.26C133.007 132.108 128.383 132.014 123.759 131.976C122.384 130.788 121.019 129.606 119.665 128.429C119.662 125.253 119.655 122.077 119.65 118.901C121.192 117.534 122.721 116.168 124.237 114.799C129.414 114.8 134.59 114.799 139.767 114.802C141.307 116.143 142.858 117.496 144.422 118.867C144.504 120.464 144.587 122.061 144.669 123.658C142.67 123.608 140.671 123.567 138.671 123.531C138.63 122.511 138.589 121.491 138.548 120.471C137.903 119.924 137.261 119.379 136.62 118.836C133.582 118.813 130.544 118.796 127.506 118.785C126.878 119.344 126.248 119.901 125.616 120.459C125.645 122.477 125.673 124.496 125.701 126.515C126.185 126.946 126.67 127.378 127.156 127.811C131.757 127.86 136.357 127.952 140.956 128.092C142.361 129.324 143.776 130.571 145.2 131.835C145.381 135.248 145.562 138.661 145.744 142.075C144.2 143.375 142.641 144.667 141.071 145.958C135.473 145.582 129.869 145.364 124.263 145.275C122.671 143.941 121.092 142.62 119.525 141.309Z" fill="#ECCA00"/>
<path d="M152.449 114.817C159.521 114.823 166.591 114.808 173.662 114.801C173.814 116.391 173.966 117.982 174.118 119.572C168.974 119.453 163.827 119.358 158.678 119.268C158.926 122.508 159.176 125.749 159.428 128.99C164.253 129.255 169.072 129.544 173.885 129.889C174.033 131.452 174.18 133.015 174.328 134.579C169.486 134.138 164.634 133.751 159.774 133.404C160.04 136.751 160.328 140.101 160.603 143.451C166.043 144.057 171.465 144.713 176.866 145.424C177.179 147.039 177.522 148.655 177.741 150.268C170.097 149.133 162.392 148.008 154.67 147.162C153.902 136.375 153.175 125.596 152.449 114.817Z" fill="#ECCA00"/>
<path d="M70.6444 128.094C73.2066 127.916 75.7965 127.751 78.3818 127.6C78.7342 127.276 79.092 126.948 79.4537 126.618C79.5619 125.096 79.7982 121.765 79.7982 121.765C79.6509 121.615 79.5031 121.465 79.3554 121.314C76.6226 121.358 73.9046 121.407 71.2396 121.458C71.0432 123.646 70.6444 128.094 70.6444 128.094ZM57.7227 150.079C58.8765 138.251 60.0254 126.227 61.1365 114.6L61.3472 112.395C61.3472 112.395 67.7731 112.394 69.8932 112.394L85.0101 112.395L85.7169 113.115C87.0943 114.519 88.5373 115.954 90.0058 117.381L90.7971 118.15L90.73 119.252C90.5889 121.569 90.447 123.885 90.3051 126.202L90.0725 130.002L89.3471 130.659C88.164 131.732 86.9999 132.794 85.873 133.831C87.0766 138.007 88.3004 142.089 89.5166 145.984L90.4021 148.82L87.444 149.094C85.3302 149.29 83.188 149.51 81.0774 149.746L79.0566 149.972L78.4985 148.016C77.4506 144.345 76.4228 140.591 75.4362 136.83C73.557 136.979 71.6786 137.138 69.818 137.304C69.5984 139.749 69.3796 142.193 69.1607 144.637L68.5569 151.376L66.6991 151.665C64.6553 151.982 62.5788 152.324 60.5274 152.68L57.416 153.222L57.7227 150.079Z" fill="#EC0000"/>
<path d="M91.5315 140.089L93.6703 139.949C95.034 139.86 96.4107 139.777 97.784 139.702C98.0349 133.171 98.2667 127.009 98.4879 120.992C97.3311 121.002 96.1743 121.012 95.0176 121.022L92.469 121.046L92.8935 112.395L95.1839 112.396C96.9531 112.397 98.7234 112.397 100.493 112.397C103.044 112.397 105.595 112.397 108.146 112.396L115.49 112.394L115.382 120.909L113.014 120.915C111.781 120.918 110.548 120.922 109.316 120.927C109.205 125.427 109.088 129.963 108.975 134.37C108.934 135.999 108.892 137.627 108.85 139.256C110.132 139.223 111.412 139.196 112.678 139.175L115.152 139.136L115.045 147.653L112.713 147.695C106.427 147.807 100.069 148.1 93.8177 148.564L91.1055 148.765L91.5315 140.089Z" fill="#EC0000"/>
<path d="M128.09 125.417C130.866 125.45 133.628 125.499 136.347 125.563L136.189 121.622C136.036 121.492 135.883 121.363 135.731 121.234C133.402 121.216 130.993 121.203 128.416 121.192C128.289 121.305 128.163 121.417 128.036 121.529C128.049 122.459 128.09 125.417 128.09 125.417ZM128.557 138.979C131.277 139.046 134.008 139.142 136.699 139.266C136.799 139.182 136.899 139.099 137 139.016C136.98 138.54 136.96 138.065 136.94 137.59C136.901 136.642 136.861 135.694 136.822 134.747C136.779 134.709 136.737 134.672 136.694 134.635C133.839 134.545 130.95 134.477 128.06 134.432L128.118 138.606C128.264 138.73 128.411 138.854 128.557 138.979ZM140.91 148.356C135.555 147.997 129.941 147.769 124.225 147.679L123.372 147.665L122.718 147.117C121.303 145.93 119.898 144.754 118.502 143.587L117.123 142.433L117.113 134.226L119.523 134.229C120.58 134.23 121.644 134.235 122.706 134.243L122.187 133.795C120.81 132.604 119.444 131.422 118.088 130.243L117.262 129.525L117.261 128.431C117.259 126.353 117.255 124.276 117.252 122.199L117.245 117.82L118.056 117.101C119.704 115.64 121.199 114.304 122.626 113.015L123.313 112.394L130.016 112.396C133.267 112.396 136.518 112.396 139.769 112.398L140.668 112.399L141.346 112.989C143.223 114.623 144.661 115.879 146.007 117.06L146.77 117.729L147.204 126.126L144.61 126.061C143.827 126.042 143.034 126.023 142.223 126.005L142.541 126.284C144.006 127.568 145.437 128.831 146.796 130.036L147.548 130.704L147.601 131.708C147.782 135.121 147.963 138.534 148.145 141.947L148.208 143.142L147.293 143.913C145.893 145.093 144.356 146.369 142.597 147.815L141.861 148.42L140.91 148.356Z" fill="#EC0000"/>
<path d="M180.554 153.116L177.389 152.646C169.604 151.489 161.99 150.382 154.409 149.551L152.416 149.332L152.273 147.332C151.497 136.435 150.762 125.527 150.052 114.978L149.879 112.41L152.453 112.412C153.628 112.413 154.804 112.414 155.979 112.414C159.837 112.414 163.694 112.409 167.551 112.404C169.588 112.401 171.624 112.399 173.661 112.397L175.848 112.395L176.059 114.606C176.21 116.185 176.362 117.764 176.512 119.344L176.769 122.038L174.063 121.975C169.759 121.875 165.423 121.792 161.279 121.718C161.406 123.38 161.535 125.043 161.663 126.706C166.366 126.972 170.347 127.225 174.058 127.491L176.088 127.636C176.088 127.636 176.581 132.858 176.723 134.352L176.996 137.235L174.111 136.972C170.336 136.628 166.481 136.31 162.398 136.005C162.496 137.198 162.596 138.387 162.693 139.555C162.741 140.13 162.79 140.706 162.838 141.282C167.662 141.831 172.478 142.421 177.181 143.04L178.897 143.266L180.554 153.116Z" fill="#EC0000"/>
</g>
<path d="M62.9851 114.199L62.9308 114.766C61.8195 126.396 60.6703 138.422 59.516 150.254L59.4395 151.04L60.2173 150.905C62.2793 150.546 64.3667 150.202 66.4215 149.884L66.886 149.811L67.3644 144.471C67.6277 141.529 67.891 138.588 68.1558 135.646C71.004 135.382 73.9067 135.137 76.799 134.916C77.8976 139.15 79.0514 143.389 80.2312 147.522L80.3707 148.011L80.8759 147.955C82.9977 147.717 85.1511 147.497 87.2763 147.3L88.0159 147.231L87.7945 146.522C86.4705 142.282 85.1378 137.822 83.8317 133.26C85.2132 131.984 86.6594 130.662 88.1353 129.324L88.3165 129.16L88.5061 126.063C88.6475 123.756 88.7887 121.45 88.9291 119.143L88.946 118.868L88.7482 118.675C87.2695 117.238 85.8163 115.793 84.4286 114.379L84.252 114.199L69.8872 114.197C67.7687 114.197 62.9851 114.199 62.9851 114.199ZM68.8558 127.841C69.0994 125.123 69.343 122.406 69.5873 119.688C73.0162 119.62 76.5487 119.556 80.1012 119.5C80.6192 120.031 81.1398 120.561 81.6535 121.078C81.6535 121.078 81.326 125.696 81.1999 127.465C80.4946 128.108 79.799 128.745 79.1275 129.364C75.6241 129.565 72.1068 129.793 68.6583 130.044L68.8558 127.841Z" fill="url(#paint1_linear_694_4822)"/>
<path d="M108.137 114.198C105.588 114.199 103.039 114.199 100.49 114.199C98.7206 114.199 96.9515 114.199 95.1826 114.198H94.61L94.3633 119.225L95.0004 119.219C96.7864 119.202 98.5723 119.187 100.358 119.174C100.098 126.291 99.824 133.58 99.5222 141.416C97.6148 141.512 95.6884 141.623 93.7878 141.748L93.253 141.783L93.0059 146.816L93.6839 146.765C99.9689 146.299 106.36 146.005 112.681 145.891L113.263 145.881L113.326 140.967L112.707 140.977C110.821 141.008 108.904 141.053 106.999 141.112C107.057 138.849 107.115 136.587 107.173 134.324C107.3 129.345 107.432 124.201 107.556 119.131C109.374 119.122 111.191 119.116 113.009 119.111L113.601 119.11L113.663 114.197L108.137 114.198V114.198Z" fill="url(#paint2_linear_694_4822)"/>
<path d="M123.836 114.352C122.405 115.644 120.906 116.985 119.253 118.449L119.051 118.629L119.057 122.199C119.06 124.275 119.064 126.351 119.066 128.428L119.066 128.701L119.272 128.881C120.627 130.059 121.993 131.241 123.368 132.43L123.535 132.574L123.756 132.576C128.309 132.613 132.897 132.706 137.397 132.852C137.795 133.2 138.194 133.549 138.594 133.898C138.643 135.104 138.693 136.309 138.743 137.514C138.775 138.286 138.808 139.058 138.839 139.83C138.333 140.253 137.824 140.676 137.314 141.098C134.203 140.95 131.031 140.838 127.878 140.764C127.36 140.325 126.843 139.886 126.328 139.449L126.281 136.088L125.697 136.079C123.655 136.049 121.577 136.033 119.522 136.03L118.92 136.03L118.926 141.588L119.674 142.214C121.066 143.379 122.467 144.551 123.879 145.734L124.042 145.871L124.255 145.875C130.002 145.966 135.647 146.195 141.032 146.556L141.27 146.572L141.454 146.421C143.207 144.98 144.738 143.709 146.133 142.533L146.362 142.34L146.346 142.042C146.164 138.628 145.983 135.215 145.802 131.802L145.789 131.551L145.601 131.384C144.246 130.181 142.817 128.921 141.354 127.639L141.192 127.496L140.976 127.49C136.564 127.355 131.994 127.261 127.389 127.211L126.3 126.24C126.3 126.24 126.24 121.927 126.223 120.725C126.728 120.279 127.233 119.833 127.735 119.386C130.821 119.397 133.66 119.413 136.4 119.434C136.918 119.874 137.439 120.315 137.96 120.758L138.096 124.121L138.663 124.131C140.795 124.169 142.755 124.21 144.656 124.258L145.305 124.274L145.01 118.582L144.82 118.414C143.475 117.235 142.039 115.981 140.164 114.348L139.994 114.2H139.769C136.52 114.198 133.27 114.198 130.021 114.198L124.008 114.196L123.836 114.352Z" fill="url(#paint3_linear_694_4822)"/>
<path d="M173.662 114.197C171.625 114.199 169.59 114.201 167.554 114.204C163.695 114.209 159.837 114.214 155.978 114.214C154.802 114.214 153.626 114.214 152.45 114.212L151.807 114.211L151.85 114.853C152.56 125.402 153.295 136.31 154.071 147.201L154.107 147.701L154.605 147.755C162.217 148.59 169.851 149.7 177.653 150.859L178.444 150.977L177.374 144.881L176.944 144.824C171.774 144.144 166.468 143.498 161.162 142.905C161.074 141.837 160.985 140.77 160.896 139.702C160.741 137.849 160.581 135.939 160.43 134.05C165.311 134.402 169.847 134.77 174.274 135.173L174.995 135.239L174.436 129.322L173.928 129.286C169.82 128.991 165.377 128.713 159.987 128.415C159.766 125.568 159.546 122.722 159.328 119.876C164.063 119.96 169.104 120.053 174.104 120.169L174.781 120.185L174.716 119.511C174.565 117.922 174.413 116.334 174.26 114.74L174.208 114.196H173.662V114.197Z" fill="url(#paint4_linear_694_4822)"/>
<mask id="mask1_694_4822" style="mask-type:luminance" maskUnits="userSpaceOnUse" x="0" y="0" width="238" height="238">
<path d="M0 0H238V238H0V0Z" fill="white"/>
</mask>
<g mask="url(#mask1_694_4822)">
<path d="M119 162.1V172.321L133.721 162.1L120.569 168.233L119 162.1Z" fill="#FDC70C"/>
<path d="M119.002 162.1V172.321L104.281 162.1L117.433 168.233L119.002 162.1Z" fill="#EE1706"/>
<path d="M141.363 90.3947C141.022 92.0222 140.507 93.5861 139.839 95.0657C139.739 95.2881 139.635 95.5093 139.528 95.7281L139.526 95.7293C135.807 103.309 128.014 108.527 119.001 108.527C106.381 108.527 96.1504 98.2968 96.1504 85.6768C96.1504 84.887 96.1901 84.1057 96.2694 83.3364C96.4737 81.317 96.9425 79.3758 97.6385 77.5463C98.2563 82.8556 100.449 87.8428 104.015 91.7385C105.749 93.6329 107.808 95.2689 110.168 96.5586C116.198 99.851 123.065 100.266 129.324 98.2727C133.835 96.8375 138.03 94.1522 141.363 90.3947Z" fill="#EE1706"/>
<path d="M141.851 85.6783C141.851 86.9849 141.742 88.2674 141.53 89.5139C141.48 89.8096 141.425 90.1041 141.363 90.3962C138.03 94.1537 133.835 96.839 129.324 98.2742C123.065 100.267 116.198 99.8525 110.169 96.5602C107.808 95.2704 105.749 93.6344 104.015 91.7401C100.449 87.8443 98.2565 82.8571 97.6387 77.5478C97.7348 77.2978 97.8334 77.0514 97.9368 76.8062L97.938 76.8049C98.402 75.7039 98.9501 74.6473 99.5727 73.6424L99.5739 73.6412C100.301 72.4693 101.133 71.3682 102.054 70.3513C101.821 71.9272 101.889 73.5054 102.228 75.044C103.654 81.5205 109.854 87.295 118.389 89.2711C126.308 91.1018 134.118 89.1737 138.84 84.82C139.884 83.8584 140.777 82.779 141.486 81.5938C141.726 82.9196 141.851 84.2839 141.851 85.6783Z" fill="#FDC70C"/>
<path d="M141.487 81.5931C140.778 82.7783 139.885 83.8577 138.842 84.8193C134.119 89.173 126.309 91.1011 118.39 89.2704C109.855 87.2943 103.655 81.5198 102.229 75.0433C101.89 73.5047 101.822 71.9264 102.055 70.3506C102.527 69.8277 103.025 69.3277 103.543 68.8517C107.612 65.111 113.04 62.8271 119.002 62.8271C129.806 62.8271 138.86 70.3253 141.24 80.4019C141.333 80.7949 141.416 81.1916 141.487 81.5931Z" fill="#FFF33B"/>
<path d="M137.165 90.8386C136.871 88.7543 136.2 86.5492 134.807 84.7946C133.175 82.7379 130.851 81.623 127.9 81.4806C120.344 81.1148 116.02 87.0148 111.836 92.7192C110.095 95.0941 108.305 97.5345 106.262 99.597C103.302 96.8851 101.207 93.2439 100.443 89.1404C105.139 81.9853 112.757 78.4477 123.097 78.628C129.671 78.7426 135.378 80.3999 137.3 81.0223C137.68 82.5119 137.882 84.0716 137.882 85.6776C137.882 87.4663 137.632 89.1976 137.165 90.8386ZM119.002 104.557C115.137 104.557 111.54 103.388 108.544 101.388C110.629 99.2396 112.42 96.8017 114.163 94.4254C118.237 88.8703 121.753 84.0716 127.761 84.3621C129.871 84.4639 131.435 85.1903 132.543 86.5826C135.065 89.7518 134.471 95.3627 134.275 96.7628C130.839 101.483 125.274 104.557 119.002 104.557ZM129.982 70.3284C129.097 70.7101 127.762 71.045 125.941 70.877C123.076 70.6125 120.925 70.1578 118.845 69.7181C117.764 69.4897 116.744 69.2738 115.649 69.088C114.821 68.9476 112.894 68.6809 110.613 68.7683C113.142 67.5084 115.991 66.7983 119.002 66.7983C123.095 66.7983 126.886 68.1075 129.982 70.3284ZM136.086 77.6475C133.229 76.8658 128.54 75.8471 123.228 75.7449C118.161 75.6478 113.579 76.4135 109.618 78.0219C105.892 79.5354 102.719 81.7931 100.146 84.7555C100.358 80.3704 102.073 76.3735 104.786 73.2692C107.467 71.3031 112.429 71.4679 115.166 71.9322C116.204 72.1083 117.197 72.3183 118.249 72.5406C120.41 72.9973 122.644 73.4697 125.676 73.7497C128.93 74.0498 131.142 73.085 132.338 72.3266C133.875 73.8618 135.148 75.6605 136.086 77.6475ZM119.002 63.9134C112.582 63.9134 106.803 66.709 102.815 71.1458C102.416 71.582 102.341 71.696 102.047 72.0334L101.943 72.1788C98.9989 75.8913 97.2383 80.5825 97.2383 85.6776C97.2383 97.6783 107.002 107.442 119.002 107.442C131.003 107.442 140.767 97.6783 140.767 85.6776C140.767 73.6768 131.003 63.9134 119.002 63.9134Z" fill="black"/>
<path d="M88.9039 156.545C88.8658 156.179 88.5829 156.015 88.2857 156.022C88.1814 156.025 88.0539 156.038 87.9266 156.051L87.1936 156.128L87.3168 157.306L88.0893 157.226C88.2169 157.212 88.3442 157.199 88.4469 157.18C88.7001 157.138 88.9414 156.903 88.9039 156.545ZM87.0855 155.092L87.7307 155.025C87.8582 155.011 87.9769 154.991 88.0788 154.964C88.3374 154.897 88.5066 154.742 88.4724 154.416C88.4401 154.105 88.2569 153.971 87.982 153.96C87.8767 153.955 87.7484 153.96 87.621 153.973L86.9758 154.041L87.0855 155.092ZM90.4065 156.436C90.5137 157.464 89.7306 158.061 88.999 158.226C88.7234 158.287 88.5403 158.306 88.1898 158.343L85.9994 158.571L85.4258 153.075L87.6798 152.84C87.9745 152.809 88.102 152.796 88.3842 152.799C89.3037 152.815 89.8734 153.336 89.9483 154.053C90.0007 154.554 89.7777 154.964 89.256 155.212C89.9698 155.339 90.3365 155.767 90.4065 156.436Z" fill="white"/>
<path d="M94.507 155.187L95.5287 155.104L94.8806 153.453L94.507 155.187ZM94.2465 156.333L93.8995 157.8L92.375 157.923L93.9155 152.254L95.6715 152.112L98.1061 157.458L96.5416 157.585L95.9627 156.194L94.2465 156.333Z" fill="white"/>
<path d="M103.981 153.273L102.543 153.358C102.452 152.906 102.194 152.617 101.722 152.645C101.395 152.664 101.18 152.837 101.2 153.173C101.221 153.525 101.49 153.726 102.414 153.887C103.646 154.103 104.177 154.681 104.227 155.529C104.293 156.632 103.271 157.254 102.16 157.32C100.761 157.402 99.7844 156.899 99.623 155.665L101.062 155.58C101.189 156.094 101.625 156.292 102.057 156.267C102.457 156.243 102.748 156.017 102.73 155.714C102.713 155.426 102.491 155.19 101.801 155.063C100.528 154.825 99.7693 154.477 99.7039 153.374C99.641 152.311 100.597 151.653 101.692 151.588C103.147 151.502 103.801 152.257 103.981 153.273Z" fill="white"/>
<path d="M111.852 156.777L110.051 156.843L108.412 154.771L108.036 155.218L108.098 156.914L106.658 156.967L106.455 151.445L107.896 151.392L107.985 153.833L110 151.315L111.721 151.252L109.432 153.94L111.852 156.777Z" fill="white"/>
<path d="M118.4 156.675L114.164 156.731L114.092 151.206L118.248 151.151L118.262 152.272L115.548 152.308L115.562 153.381L118.116 153.347L118.131 154.468L115.577 154.502L115.591 155.591L118.385 155.554L118.4 156.675Z" fill="white"/>
<path d="M123.594 152.298L123.551 156.702L122.11 156.688L122.153 152.284L120.359 152.266L120.37 151.145L125.399 151.195L125.388 152.316L123.594 152.298Z" fill="white"/>
<path d="M129.021 153.478L129.669 153.5C129.797 153.505 129.917 153.501 130.022 153.488C130.288 153.457 130.476 153.328 130.488 153C130.498 152.687 130.336 152.53 130.065 152.48C129.961 152.461 129.834 152.448 129.706 152.444L129.058 152.421L129.021 153.478ZM130.621 155.167C130.634 154.799 130.376 154.598 130.081 154.564C129.977 154.552 129.849 154.548 129.721 154.543L128.985 154.518L128.944 155.702L129.72 155.729C129.848 155.734 129.976 155.738 130.081 155.734C130.337 155.726 130.608 155.527 130.621 155.167ZM132.124 155.267C132.088 156.3 131.23 156.783 130.483 156.845C130.202 156.868 130.018 156.861 129.666 156.849L127.465 156.773L127.656 151.251L129.92 151.33C130.217 151.34 130.345 151.344 130.624 151.386C131.532 151.529 132.024 152.123 131.999 152.844C131.982 153.348 131.704 153.723 131.154 153.896C131.843 154.12 132.147 154.595 132.124 155.267Z" fill="white"/>
<path d="M136.361 154.608L137.384 154.671L136.977 152.945L136.361 154.608ZM135.94 155.706L135.388 157.108L133.861 157.013L136.192 151.621L137.95 151.729L139.6 157.367L138.034 157.271L137.658 155.811L135.94 155.706Z" fill="white"/>
<path d="M145.89 157.919L141.672 157.539L142.168 152.036L143.603 152.165L143.217 156.456L146 156.707L145.89 157.919Z" fill="white"/>
<path d="M152.429 158.67L148.223 158.169L148.876 152.683L150.308 152.853L149.798 157.131L152.573 157.462L152.429 158.67Z" fill="white"/>
</g>
<path d="M174.917 157.052L168.557 163.561L177.839 156.583L178.166 156.338L178.005 156.324L178.057 156.281L167.842 154.857L174.917 157.052Z" fill="url(#paint5_linear_694_4822)"/>
<path d="M59.9424 156.423L59.9945 156.466L59.834 156.48L60.1607 156.726L69.4426 163.704L63.0826 157.194L70.2825 154.708L59.9424 156.423Z" fill="url(#paint6_linear_694_4822)"/>
<defs>
<linearGradient id="paint0_linear_694_4822" x1="135.267" y1="180.696" x2="89.83" y2="67.4874" gradientUnits="userSpaceOnUse">
<stop stop-color="#FFF33B"/>
<stop offset="0.233395" stop-color="#FDC70C"/>
<stop offset="0.492466" stop-color="#FDC70C"/>
<stop offset="0.760623" stop-color="#FDC70C"/>
<stop offset="1" stop-color="#EC0000"/>
</linearGradient>
<linearGradient id="paint1_linear_694_4822" x1="74.1927" y1="110.72" x2="74.1927" y2="144" gradientUnits="userSpaceOnUse">
<stop stop-color="#FFF33B"/>
<stop offset="0.320128" stop-color="#FFF33B"/>
<stop offset="0.5" stop-color="#FDC70C"/>
<stop offset="1" stop-color="#FDC70C"/>
</linearGradient>
<linearGradient id="paint2_linear_694_4822" x1="103.334" y1="110.719" x2="103.334" y2="143.999" gradientUnits="userSpaceOnUse">
<stop stop-color="#FFF33B"/>
<stop offset="0.320128" stop-color="#FFF33B"/>
<stop offset="0.5" stop-color="#FDC70C"/>
<stop offset="1" stop-color="#FDC70C"/>
</linearGradient>
<linearGradient id="paint3_linear_694_4822" x1="132.641" y1="110.718" x2="132.641" y2="143.998" gradientUnits="userSpaceOnUse">
<stop stop-color="#FFF33B"/>
<stop offset="0.320128" stop-color="#FFF33B"/>
<stop offset="0.5" stop-color="#FDC70C"/>
<stop offset="1" stop-color="#FDC70C"/>
</linearGradient>
<linearGradient id="paint4_linear_694_4822" x1="165.126" y1="110.717" x2="165.126" y2="143.997" gradientUnits="userSpaceOnUse">
<stop stop-color="#FFF33B"/>
<stop offset="0.320128" stop-color="#FFF33B"/>
<stop offset="0.5" stop-color="#FDC70C"/>
<stop offset="1" stop-color="#FDC70C"/>
</linearGradient>
<linearGradient id="paint5_linear_694_4822" x1="178.347" y1="172.37" x2="174.134" y2="161.874" gradientUnits="userSpaceOnUse">
<stop stop-color="#FFF33B"/>
<stop offset="0.233395" stop-color="#FDC70C"/>
<stop offset="0.492466" stop-color="#FDC70C"/>
<stop offset="0.760623" stop-color="#FDC70C"/>
<stop offset="1" stop-color="#EC0000"/>
</linearGradient>
<linearGradient id="paint6_linear_694_4822" x1="59.4861" y1="172.929" x2="63.8587" y2="162.034" gradientUnits="userSpaceOnUse">
<stop stop-color="#FFF33B"/>
<stop offset="0.233395" stop-color="#FDC70C"/>
<stop offset="0.492466" stop-color="#FDC70C"/>
<stop offset="0.760623" stop-color="#FDC70C"/>
<stop offset="1" stop-color="#EC0000"/>
</linearGradient>
</defs>
</svg>
